<svg width="18" height="12" viewBox="0 0 18 12" fill="none" xmlns="http://www.w3.org/2000/svg">
<path fill-rule="evenodd" clip-rule="evenodd" d="M16.6666 0.666016H15.6666C15.1143 0.666016 14.6666 1.11373 14.6666 1.66602V10.3327C14.6666 10.885 15.1143 11.3327 15.6666 11.3327H16.6666C17.2189 11.3327 17.6666 10.885 17.6666 10.3327V1.66602C17.6666 1.11373 17.2189 0.666016 16.6666 0.666016ZM11 3H12C12.5523 3 13 3.44772 13 4V10.3333C13 10.8856 12.5523 11.3333 12 11.3333H11C10.4477 11.3333 9.99997 10.8856 9.99997 10.3333V4C9.99997 3.44772 10.4477 3 11 3ZM7.33328 5.33203H6.33328C5.781 5.33203 5.33328 5.77975 5.33328 6.33203V10.332C5.33328 10.8843 5.781 11.332 6.33328 11.332H7.33328C7.88557 11.332 8.33328 10.8843 8.33328 10.332V6.33203C8.33328 5.77975 7.88557 5.33203 7.33328 5.33203ZM2.66663 7.33203H1.66663C1.11434 7.33203 0.666626 7.77975 0.666626 8.33203V10.332C0.666626 10.8843 1.11434 11.332 1.66663 11.332H2.66663C3.21891 11.332 3.66663 10.8843 3.66663 10.332V8.33203C3.66663 7.77975 3.21891 7.33203 2.66663 7.33203Z" fill="black" fill-opacity="0.9"/>
</svg>
