<svg width="16" height="12" viewBox="0 0 16 12" fill="none" xmlns="http://www.w3.org/2000/svg">
<path fill-rule="evenodd" clip-rule="evenodd" d="M8.33033 2.60741C10.5462 2.6075 12.6774 3.45894 14.2833 4.98574C14.4043 5.10361 14.5976 5.10213 14.7167 4.98241L15.8727 3.81574C15.933 3.75502 15.9666 3.67276 15.9661 3.58718C15.9656 3.5016 15.931 3.41975 15.87 3.35974C11.6549 -0.679809 5.0051 -0.679809 0.789998 3.35974C0.728939 3.41971 0.694296 3.50153 0.693733 3.58712C0.69317 3.6727 0.726734 3.75497 0.786998 3.81574L1.94333 4.98241C2.06236 5.10231 2.25581 5.1038 2.37666 4.98574C3.98282 3.45884 6.11422 2.6074 8.33033 2.60741ZM8.33032 6.40395C9.54781 6.40388 10.7219 6.85641 11.6243 7.67362C11.7464 7.7896 11.9387 7.78709 12.0577 7.66795L13.2123 6.50129C13.2731 6.44009 13.3069 6.35708 13.306 6.27081C13.3051 6.18455 13.2697 6.10223 13.2077 6.04229C10.4595 3.4859 6.20352 3.4859 3.45532 6.04229C3.39324 6.10223 3.35782 6.18459 3.35701 6.27088C3.35619 6.35717 3.39005 6.44018 3.45099 6.50129L4.60532 7.66795C4.72431 7.78709 4.91659 7.7896 5.03865 7.67362C5.94053 6.85695 7.11364 6.40446 8.33032 6.40395ZM10.6433 8.95752C10.6451 9.04403 10.6111 9.12743 10.5493 9.18804L8.55199 11.2037C8.49344 11.2629 8.41361 11.2963 8.33032 11.2963C8.24703 11.2963 8.16721 11.2629 8.10866 11.2037L6.11099 9.18804C6.04928 9.12739 6.01533 9.04396 6.01716 8.95745C6.01899 8.87094 6.05644 8.78903 6.12066 8.73104C7.39623 7.65215 9.26442 7.65215 10.54 8.73104C10.6042 8.78907 10.6416 8.87102 10.6433 8.95752Z" fill="black" fill-opacity="0.9"/>
</svg>
